#Comment line ignore any data following # character 
#Hierarchical Translation and Rotation (.htr) file 
[Header]	
#Header keywords are followed by a single value 
FileType HTR		#Single word string
DataType HTRS		#Translation followed by rotation and scale data
FileVersion 1		#integer
NumSegments 84		#integer
NumFrames 2		#integer
DataFrameRate 30		#integer, data frame rate in this file
EulerRotationOrder ZYX
CalibrationUnits mm
RotationUnits Degrees
GlobalAxisofGravity Y
BoneLengthAxis Y
ScaleFactor 1.00
[SegmentNames&Hierarchy]
#CHILD	PARENT
MASTER GLOBAL
root MASTER
chest root
L_mid_tent01 root
R_mid_tent01 root
spine01 root
Bip01_Neck chest
L_humerus chest
R_humerus chest
weapon_bone chest
Bip01_Head Bip01_Neck
eye_left_bone Bip01_Head
eye_right_bone Bip01_Head
L_forearm L_humerus
L_front_hand L_forearm
L_weapon_bone L_forearm
L_front_hand01_01 L_front_hand
L_front_hand02_01 L_front_hand
L_front_hand03_01 L_front_hand
L_front_hand01_02 L_front_hand01_01
L_front_hand02_02 L_front_hand02_01
L_front_hand03_02 L_front_hand03_01
R_forearm R_humerus
R_front_hand R_forearm
R_weapon_bone R_forearm
R_front_hand01_01 R_front_hand
R_front_hand02_01 R_front_hand
R_front_hand03_01 R_front_hand
R_front_hand01_02 R_front_hand01_01
R_front_hand02_02 R_front_hand02_01
R_front_hand03_02 R_front_hand03_01
null_rope01_connect L_mid_tent01
Rope1_Seg01 null_rope01_connect
Rope1_Seg02 Rope1_Seg01
Rope1_Seg03 Rope1_Seg02
Rope1_Seg04 Rope1_Seg03
Rope1_Seg05 Rope1_Seg04
Rope1_Seg06 Rope1_Seg05
Rope1_Seg07 Rope1_Seg06
Rope1_Seg09 Rope1_Seg07
L_mid_hand01 Rope1_Seg09
L_mid_hand02 Rope1_Seg09
L_mid_hand03 Rope1_Seg09
null_rope02_connect R_mid_tent01
Rope2_Seg01 null_rope02_connect
Rope2_Seg02 Rope2_Seg01
Rope2_Seg03 Rope2_Seg02
Rope2_Seg04 Rope2_Seg03
Rope2_Seg05 Rope2_Seg04
Rope2_Seg06 Rope2_Seg05
Rope2_Seg07 Rope2_Seg06
Rope2_Seg09 Rope2_Seg07
R_mid_hand01 Rope2_Seg09
R_mid_hand02 Rope2_Seg09
R_mid_hand03 Rope2_Seg09
spine02 spine01
spine03 spine02
pelvis spine03
null_rope03_connect pelvis
null_rope04_connect pelvis
Rope3_Seg01 null_rope03_connect
Rope3_Seg02 Rope3_Seg01
Rope3_Seg03 Rope3_Seg02
Rope3_Seg04 Rope3_Seg03
Rope3_Seg05 Rope3_Seg04
Rope3_Seg06 Rope3_Seg05
Rope3_Seg07 Rope3_Seg06
Rope3_Seg08 Rope3_Seg07
Rope3_Seg09 Rope3_Seg08
R_rear_hand01 Rope3_Seg09
R_rear_hand02 Rope3_Seg09
R_rear_hand03 Rope3_Seg09
Rope4_Seg01 null_rope04_connect
Rope4_Seg02 Rope4_Seg01
Rope4_Seg03 Rope4_Seg02
Rope4_Seg04 Rope4_Seg03
Rope4_Seg05 Rope4_Seg04
Rope4_Seg06 Rope4_Seg05
Rope4_Seg07 Rope4_Seg06
Rope4_Seg08 Rope4_Seg07
Rope4_Seg09 Rope4_Seg08
L_rear_hand01 Rope4_Seg09
L_rear_hand02 Rope4_Seg09
L_rear_hand03 Rope4_Seg09
[BasePosition]
#SegmentName Tx, Ty, Tz, Rx, Ry, Rz, BoneLength
MASTER 0.000000 0.000000 0.000000 -90.000000 0.000000 0.000000 10.000000 
root 0.000000 0.000000 0.000000 0.000000 0.000000 0.000000 10.000000 
chest 0.000000 0.000000 0.000000 0.000000 0.000000 0.000000 10.000000 
L_mid_tent01 0.000000 0.000000 0.000000 0.000000 0.000000 0.000000 10.000000 
R_mid_tent01 0.000000 0.000000 0.000000 0.000000 0.000000 0.000000 10.000000 
spine01 0.000000 0.000000 0.000000 0.000000 0.000000 0.000000 10.000000 
Bip01_Neck 0.000000 0.000000 0.000000 0.000000 0.000000 0.000000 10.000000 
L_humerus 0.000000 0.000000 0.000000 0.000000 0.000000 0.000000 10.000000 
R_humerus 0.000000 0.000000 0.000000 0.000000 0.000000 0.000000 10.000000 
weapon_bone 0.000000 0.000000 0.000000 0.000000 0.000000 0.000000 10.000000 
Bip01_Head 0.000000 0.000000 0.000000 0.000000 0.000000 0.000000 10.000000 
eye_left_bone 0.000000 0.000000 0.000000 0.000000 0.000000 0.000000 10.000000 
eye_right_bone 0.000000 0.000000 0.000000 0.000000 0.000000 0.000000 10.000000 
L_forearm 0.000000 0.000000 0.000000 0.000000 0.000000 0.000000 10.000000 
L_front_hand 0.000000 0.000000 0.000000 0.000000 0.000000 0.000000 10.000000 
L_weapon_bone 0.000000 0.000000 0.000000 0.000000 0.000000 0.000000 10.000000 
L_front_hand01_01 0.000000 0.000000 0.000000 0.000000 0.000000 0.000000 10.000000 
L_front_hand02_01 0.000000 0.000000 0.000000 0.000000 0.000000 0.000000 10.000000 
L_front_hand03_01 0.000000 0.000000 0.000000 0.000000 0.000000 0.000000 10.000000 
L_front_hand01_02 0.000000 0.000000 0.000000 0.000000 0.000000 0.000000 10.000000 
L_front_hand02_02 0.000000 0.000000 0.000000 0.000000 0.000000 0.000000 10.000000 
L_front_hand03_02 0.000000 0.000000 0.000000 0.000000 0.000000 0.000000 10.000000 
R_forearm 0.000000 0.000000 0.000000 0.000000 0.000000 0.000000 10.000000 
R_front_hand 0.000000 0.000000 0.000000 0.000000 0.000000 0.000000 10.000000 
R_weapon_bone 0.000000 0.000000 0.000000 0.000000 0.000000 0.000000 10.000000 
R_front_hand01_01 0.000000 0.000000 0.000000 0.000000 0.000000 0.000000 10.000000 
R_front_hand02_01 0.000000 0.000000 0.000000 0.000000 0.000000 0.000000 10.000000 
R_front_hand03_01 0.000000 0.000000 0.000000 0.000000 0.000000 0.000000 10.000000 
R_front_hand01_02 0.000000 0.000000 0.000000 0.000000 0.000000 0.000000 10.000000 
R_front_hand02_02 0.000000 0.000000 0.000000 0.000000 0.000000 0.000000 10.000000 
R_front_hand03_02 0.000000 0.000000 0.000000 0.000000 0.000000 0.000000 10.000000 
null_rope01_connect 0.000000 0.000000 0.000000 0.000000 0.000000 0.000000 10.000000 
Rope1_Seg01 0.000000 0.000000 0.000000 0.000000 0.000000 0.000000 10.000000 
Rope1_Seg02 0.000000 0.000000 0.000000 0.000000 0.000000 0.000000 10.000000 
Rope1_Seg03 0.000000 0.000000 0.000000 0.000000 0.000000 0.000000 10.000000 
Rope1_Seg04 0.000000 0.000000 0.000000 0.000000 0.000000 0.000000 10.000000 
Rope1_Seg05 0.000000 0.000000 0.000000 0.000000 0.000000 0.000000 10.000000 
Rope1_Seg06 0.000000 0.000000 0.000000 0.000000 0.000000 0.000000 10.000000 
Rope1_Seg07 0.000000 0.000000 0.000000 0.000000 0.000000 0.000000 10.000000 
Rope1_Seg09 0.000000 0.000000 0.000000 0.000000 0.000000 0.000000 10.000000 
L_mid_hand01 0.000000 0.000000 0.000000 0.000000 0.000000 0.000000 10.000000 
L_mid_hand02 0.000000 0.000000 0.000000 0.000000 0.000000 0.000000 10.000000 
L_mid_hand03 0.000000 0.000000 0.000000 0.000000 0.000000 0.000000 10.000000 
null_rope02_connect 0.000000 0.000000 0.000000 0.000000 0.000000 0.000000 10.000000 
Rope2_Seg01 0.000000 0.000000 0.000000 0.000000 0.000000 0.000000 10.000000 
Rope2_Seg02 0.000000 0.000000 0.000000 0.000000 0.000000 0.000000 10.000000 
Rope2_Seg03 0.000000 0.000000 0.000000 0.000000 0.000000 0.000000 10.000000 
Rope2_Seg04 0.000000 0.000000 0.000000 0.000000 0.000000 0.000000 10.000000 
Rope2_Seg05 0.000000 0.000000 0.000000 0.000000 0.000000 0.000000 10.000000 
Rope2_Seg06 0.000000 0.000000 0.000000 0.000000 0.000000 0.000000 10.000000 
Rope2_Seg07 0.000000 0.000000 0.000000 0.000000 0.000000 0.000000 10.000000 
Rope2_Seg09 0.000000 0.000000 0.000000 0.000000 0.000000 0.000000 10.000000 
R_mid_hand01 0.000000 0.000000 0.000000 0.000000 0.000000 0.000000 10.000000 
R_mid_hand02 0.000000 0.000000 0.000000 0.000000 0.000000 0.000000 10.000000 
R_mid_hand03 0.000000 0.000000 0.000000 0.000000 0.000000 0.000000 10.000000 
spine02 0.000000 0.000000 0.000000 0.000000 0.000000 0.000000 10.000000 
spine03 0.000000 0.000000 0.000000 0.000000 0.000000 0.000000 10.000000 
pelvis 0.000000 0.000000 0.000000 0.000000 0.000000 0.000000 10.000000 
null_rope03_connect 0.000000 0.000000 0.000000 0.000000 0.000000 0.000000 10.000000 
null_rope04_connect 0.000000 0.000000 0.000000 0.000000 0.000000 0.000000 10.000000 
Rope3_Seg01 0.000000 0.000000 0.000000 0.000000 0.000000 0.000000 10.000000 
Rope3_Seg02 0.000000 0.000000 0.000000 0.000000 0.000000 0.000000 10.000000 
Rope3_Seg03 0.000000 0.000000 0.000000 0.000000 0.000000 0.000000 10.000000 
Rope3_Seg04 0.000000 0.000000 0.000000 0.000000 0.000000 0.000000 10.000000 
Rope3_Seg05 0.000000 0.000000 0.000000 0.000000 0.000000 0.000000 10.000000 
Rope3_Seg06 0.000000 0.000000 0.000000 0.000000 0.000000 0.000000 10.000000 
Rope3_Seg07 0.000000 0.000000 0.000000 0.000000 0.000000 0.000000 10.000000 
Rope3_Seg08 0.000000 0.000000 0.000000 0.000000 0.000000 0.000000 10.000000 
Rope3_Seg09 0.000000 0.000000 0.000000 0.000000 0.000000 0.000000 10.000000 
R_rear_hand01 0.000000 0.000000 0.000000 0.000000 0.000000 0.000000 10.000000 
R_rear_hand02 0.000000 0.000000 0.000000 0.000000 0.000000 0.000000 10.000000 
R_rear_hand03 0.000000 0.000000 0.000000 0.000000 0.000000 0.000000 10.000000 
Rope4_Seg01 0.000000 0.000000 0.000000 0.000000 0.000000 0.000000 10.000000 
Rope4_Seg02 0.000000 0.000000 0.000000 0.000000 0.000000 0.000000 10.000000 
Rope4_Seg03 0.000000 0.000000 0.000000 0.000000 0.000000 0.000000 10.000000 
Rope4_Seg04 0.000000 0.000000 0.000000 0.000000 0.000000 0.000000 10.000000 
Rope4_Seg05 0.000000 0.000000 0.000000 0.000000 0.000000 0.000000 10.000000 
Rope4_Seg06 0.000000 0.000000 0.000000 0.000000 0.000000 0.000000 10.000000 
Rope4_Seg07 0.000000 0.000000 0.000000 0.000000 0.000000 0.000000 10.000000 
Rope4_Seg08 0.000000 0.000000 0.000000 0.000000 0.000000 0.000000 10.000000 
Rope4_Seg09 0.000000 0.000000 0.000000 0.000000 0.000000 0.000000 10.000000 
L_rear_hand01 0.000000 0.000000 0.000000 0.000000 0.000000 0.000000 10.000000 
L_rear_hand02 0.000000 0.000000 0.000000 0.000000 0.000000 0.000000 10.000000 
L_rear_hand03 0.000000 0.000000 0.000000 0.000000 0.000000 0.000000 10.000000 
#Beginning of Data. Separated by tabs
#Fr	Tx	Ty	Tz	Rx	Ry	Rz	SF
[MASTER]
28 0.000000 0.000000 0.000000 0.001660 0.001660 0.001660 0.000000
29 0.000000 0.000000 0.000000 0.001660 0.001660 0.001660 0.000000
[root]
28 -28.259235 -56.687447 1501.441650 -78.939796 -39.397865 -87.774139 1502.777100
29 -27.964800 -56.730377 1501.405518 -78.411903 -39.127762 -87.916672 1502.737061
[chest]
28 -84.512650 -34.090519 0.000000 -5.434983 -5.152037 176.614487 91.129311
29 -84.512650 -34.090519 0.000000 -4.004457 -2.634197 178.179672 91.129311
[L_mid_tent01]
28 27.299187 22.178970 -249.918701 3.862628 36.229202 81.347610 252.381683
29 27.299189 22.178965 -249.918701 3.862628 36.229202 81.347610 252.381683
[R_mid_tent01]
28 23.228794 24.509907 226.238495 160.432037 -47.061241 87.899765 228.744751
29 23.228794 24.509907 226.238495 160.432037 -47.061241 87.899765 228.744751
[spine01]
28 -0.361383 -0.195265 0.000000 0.002062 0.001122 32.879829 0.410763
29 -0.361383 -0.195265 0.000000 0.002062 0.001122 32.879829 0.410763
[Bip01_Neck]
28 165.484543 71.581718 0.000119 176.643677 -1.657967 43.431911 180.302734
29 165.484543 71.581718 0.000119 176.643677 -1.657967 43.431911 180.302734
[L_humerus]
28 -13.983130 -135.272980 -120.471481 156.317398 70.210068 -112.010254 181.680161
29 -13.983130 -135.272980 -120.471481 156.317398 70.210068 -112.010254 181.680161
[R_humerus]
28 -13.983309 -135.273102 125.287651 -172.382263 -66.903831 -92.553993 184.909012
29 -13.983309 -135.273102 125.287651 -172.382263 -66.903831 -92.553993 184.909012
[weapon_bone]
28 235.964890 -300.705902 0.000000 0.000000 -89.951546 -128.212341 382.234833
29 235.964890 -300.705902 0.000000 0.000000 -89.951546 -128.212341 382.234833
[Bip01_Head]
28 213.444199 185.715408 11.776926 10.341067 3.273658 -43.890450 283.173676
29 213.444199 185.715408 11.776926 9.401378 3.278137 -43.889645 283.173676
[eye_left_bone]
28 -24.626970 125.451866 -64.772606 0.000000 -90.000000 -99.840431 143.318359
29 -24.626970 125.451866 -64.772606 0.000000 -90.000000 -99.840431 143.318359
[eye_right_bone]
28 -24.626970 125.451866 64.327362 0.000000 -89.965736 80.156380 143.117676
29 -24.626970 125.451866 64.327362 0.000000 -89.965736 80.156380 143.117676
[L_forearm]
28 322.776093 0.000000 -0.000119 0.000396 -0.002314 -109.419975 322.776093
29 322.776093 0.000000 -0.000119 0.000396 -0.002314 -109.419975 322.776093
[L_front_hand]
28 241.149185 -0.042021 -3.300071 -178.667953 -1.835447 -27.422350 241.171753
29 241.149185 -0.042021 -3.300071 -178.667953 -1.835447 -27.422350 241.171753
[L_weapon_bone]
28 156.183838 0.000000 0.000000 0.000014 0.000007 0.000001 156.183838
29 156.183838 0.000000 0.000000 0.000014 0.000007 0.000001 156.183838
[L_front_hand01_01]
28 86.095154 20.947098 -0.655860 -0.351864 -0.488251 73.756920 88.609184
29 86.095154 20.947098 -0.655860 -0.358124 -0.483585 74.301994 88.609184
[L_front_hand02_01]
28 86.935165 -11.437475 24.513514 151.937759 -59.151085 -58.507710 91.046425
29 86.935165 -11.437475 24.513514 152.741364 -59.405804 -59.444748 91.046425
[L_front_hand03_01]
28 86.637497 -14.123976 -20.424902 -151.626480 57.374596 -59.999687 90.126129
29 86.637497 -14.123976 -20.424902 -152.381134 57.628067 -60.890842 90.126129
[L_front_hand01_02]
28 71.020905 -0.000179 0.000030 0.000325 -0.002325 -105.893082 71.020905
29 71.020905 -0.000179 0.000030 0.000326 -0.002325 -105.948112 71.020905
[L_front_hand02_02]
28 71.020927 -0.000119 0.000060 0.000325 -0.002325 -105.893082 71.020927
29 71.020927 -0.000119 0.000060 0.000326 -0.002325 -105.948112 71.020927
[L_front_hand03_02]
28 71.020905 -0.000060 0.000060 0.000325 -0.002325 -105.893082 71.020905
29 71.020905 -0.000060 0.000060 0.000326 -0.002325 -105.948112 71.020905
[R_forearm]
28 322.776428 -0.000060 0.000030 0.202103 0.065158 -108.062805 322.776428
29 322.776428 -0.000060 0.000030 0.202103 0.065158 -108.062805 322.776428
[R_front_hand]
28 238.847015 -0.006795 2.210259 -2.635298 -10.645461 -26.312506 238.857239
29 238.847015 -0.006795 2.210259 -2.635298 -10.645461 -26.312506 238.857239
[R_weapon_bone]
28 155.664093 0.002503 -0.000030 0.003487 0.001180 -90.988930 155.664078
29 155.664093 0.002503 -0.000030 0.003487 0.001180 -90.988930 155.664078
[R_front_hand01_01]
28 87.624611 14.231146 22.918642 -154.633499 -59.950619 61.746044 91.683487
29 87.624611 14.231146 22.918642 -154.633514 -59.950626 61.746063 91.683487
[R_front_hand02_01]
28 89.356956 14.367283 -19.491137 154.602661 58.302849 63.744389 92.579636
29 89.356956 14.367283 -19.491137 154.602661 58.302864 63.744389 92.579636
[R_front_hand03_01]
28 87.286232 -22.307278 -0.143439 0.162155 -0.423168 -75.767921 90.091743
29 87.286232 -22.307278 -0.143439 0.162155 -0.423168 -75.767921 90.091743
[R_front_hand01_02]
28 71.020905 0.000060 0.000119 0.002323 -0.000334 106.381714 71.020905
29 71.020905 0.000060 0.000119 0.002323 -0.000334 106.381714 71.020905
[R_front_hand02_02]
28 71.020844 -0.000030 -0.000119 0.002323 -0.000334 106.381714 71.020836
29 71.020844 -0.000030 -0.000119 0.002323 -0.000334 106.381714 71.020836
[R_front_hand03_02]
28 71.020905 0.000000 0.000030 0.002323 -0.000334 106.381714 71.020905
29 71.020905 0.000000 0.000030 0.002323 -0.000334 106.381714 71.020905
[null_rope01_connect]
28 328.732483 0.000000 -0.000238 -122.216568 -66.041824 170.858719 328.732483
29 328.732483 0.000000 -0.000238 -121.971527 -66.412735 170.276749 328.732483
[Rope1_Seg01]
28 -0.000021 0.000004 0.000015 110.172554 8.616282 -158.661255 0.000026
29 -0.000020 0.000003 0.000010 111.136810 8.930993 -160.340912 0.000023
[Rope1_Seg02]
28 139.999863 -0.000179 0.000000 21.685205 -14.918611 -11.622349 139.999863
29 139.999863 -0.000179 0.000000 19.925177 -15.194523 -10.645237 139.999863
[Rope1_Seg03]
28 139.999924 0.000060 -0.000060 24.899265 -28.544043 -13.600909 139.999924
29 139.999924 0.000060 -0.000060 22.958344 -28.069012 -12.885336 139.999924
[Rope1_Seg04]
28 139.999924 -0.000060 -0.000119 4.272863 -29.760170 5.116131 139.999924
29 139.999924 -0.000060 -0.000119 3.654459 -30.548777 5.495336 139.999924
[Rope1_Seg05]
28 139.999832 0.000119 -0.000060 -5.701397 -24.889902 19.562578 139.999832
29 139.999832 0.000119 -0.000060 -6.037194 -24.996038 19.530987 139.999832
[Rope1_Seg06]
28 139.999954 0.000119 -0.000060 -3.390411 -11.488357 7.074884 139.999954
29 139.999954 0.000119 -0.000060 -3.434090 -10.883491 6.440281 139.999954
[Rope1_Seg07]
28 139.999985 0.000060 0.000000 -2.281944 -5.673060 2.898449 139.999985
29 139.999985 0.000060 0.000000 -2.302732 -5.404766 2.651044 139.999985
[Rope1_Seg09]
28 121.602913 0.000119 -0.000089 -89.793175 -1.359789 0.847147 121.602913
29 121.602913 0.000119 -0.000089 -89.793175 -1.359789 0.847147 121.602913
[L_mid_hand01]
28 103.859421 1.038730 8.195221 130.544373 -67.584534 -38.866943 104.187431
29 103.859421 1.038730 8.195221 130.544373 -67.584534 -38.866943 104.187431
[L_mid_hand02]
28 105.572853 -4.139662 -10.864139 -168.923172 43.409309 -73.498886 106.211075
29 105.572853 -4.139662 -10.864139 -168.923172 43.409309 -73.498886 106.211075
[L_mid_hand03]
28 104.641464 17.579376 -3.913581 -6.012627 17.808174 74.893669 106.179977
29 104.641464 17.579376 -3.913581 -6.012627 17.808174 74.893669 106.179977
[null_rope02_connect]
28 328.732849 0.000179 -0.000119 -115.500450 28.000679 12.450879 328.732849
29 328.732849 0.000179 -0.000119 -115.937859 27.655767 12.134689 328.732849
[Rope2_Seg01]
28 -0.000130 0.000091 0.000000 -51.443138 13.121167 -7.758326 0.000158
29 -0.000137 0.000090 0.000000 -47.385147 10.091233 -7.020167 0.000164
[Rope2_Seg02]
28 139.999741 -0.000060 -0.000119 -13.220720 -0.749562 12.049645 139.999756
29 139.999741 -0.000060 -0.000119 -13.497371 -1.055221 13.338940 139.999756
[Rope2_Seg03]
28 140.000107 0.000030 0.000000 -13.151671 -7.182784 19.994499 140.000107
29 140.000107 0.000030 0.000000 -12.489239 -8.271685 21.013405 140.000107
[Rope2_Seg04]
28 139.999802 0.000000 -0.000060 -7.565729 -14.594634 21.472952 139.999802
29 139.999802 0.000000 -0.000060 -6.294176 -13.786028 20.148556 139.999802
[Rope2_Seg05]
28 139.999985 -0.000060 0.000119 -1.747550 -3.403136 31.277256 139.999985
29 139.999985 -0.000060 0.000119 -0.610129 -1.969600 30.663734 139.999985
[Rope2_Seg06]
28 139.999893 -0.000030 -0.000119 5.430412 -1.400309 28.024023 139.999893
29 139.999893 -0.000030 -0.000119 6.422533 -0.063422 29.888338 139.999893
[Rope2_Seg07]
28 139.999893 0.000060 -0.000060 4.251427 -0.363373 12.335363 139.999893
29 139.999893 0.000060 -0.000060 4.675423 0.452562 13.185992 139.999893
[Rope2_Seg09]
28 121.338966 0.000089 -0.000060 33.793236 -1.359788 -0.847141 121.338966
29 121.338966 0.000089 -0.000060 33.793236 -1.359788 -0.847141 121.338966
[R_mid_hand01]
28 104.680779 11.144459 -10.335981 -16.212063 45.237247 70.462852 105.778534
29 104.680779 11.144459 -10.335981 -16.212063 45.237247 70.462852 105.778534
[R_mid_hand02]
28 104.070427 2.443552 8.231699 49.067368 -67.749771 39.286453 104.424065
29 104.070427 2.443552 8.231699 49.067368 -67.749771 39.286453 104.424065
[R_mid_hand03]
28 106.028137 -11.221827 -5.996406 -177.101105 15.551026 -76.585571 106.788818
29 106.028137 -11.221827 -5.996406 -177.101105 15.551026 -76.585571 106.788818
[spine02]
28 129.756927 0.001550 0.000119 0.360061 -4.044797 -12.915058 129.756927
29 129.756927 0.001550 0.000119 0.360061 -4.044797 -12.915058 129.756927
[spine03]
28 78.614105 0.081619 -4.898988 1.896495 3.831288 16.473045 78.766647
29 78.614113 0.081624 -4.898988 1.896495 3.831288 16.473045 78.766655
[pelvis]
28 169.435242 0.051022 0.000000 -0.060465 -0.180225 14.087930 169.435257
29 169.435242 0.051022 0.000000 -0.060465 -0.180225 14.087930 169.435257
[null_rope03_connect]
28 -1.257226 -2.466202 137.391083 44.976765 -76.394371 33.680481 137.418976
29 -1.257226 -2.466202 137.391083 44.099190 -75.975899 34.290100 137.418976
[null_rope04_connect]
28 -1.259640 -2.480268 -137.844437 44.976765 -76.394371 33.680481 137.872513
29 -1.259640 -2.480268 -137.844437 44.099190 -75.975899 34.290100 137.872513
[Rope3_Seg01]
28 0.000010 0.000004 -0.000015 101.714401 -78.801537 32.202042 0.000018
29 0.000010 0.000003 -0.000010 99.584557 -79.007683 34.229599 0.000014
[Rope3_Seg02]
28 139.999924 -0.000119 0.000060 7.422054 -14.559180 -2.111865 139.999924
29 139.999924 -0.000119 0.000060 6.183044 -12.804491 -2.626628 139.999924
[Rope3_Seg03]
28 139.999924 -0.000119 0.000119 15.301157 -19.894287 1.015847 139.999924
29 139.999924 -0.000119 0.000119 13.057190 -17.745733 -0.886717 139.999924
[Rope3_Seg04]
28 139.999924 0.000119 0.000000 16.657600 -16.858135 9.033392 139.999924
29 139.999924 0.000119 0.000000 17.054970 -16.972364 6.968132 139.999924
[Rope3_Seg05]
28 139.999924 -0.000238 0.000060 18.132212 -18.599081 1.727658 139.999924
29 139.999924 -0.000238 0.000060 18.765240 -17.833836 0.572577 139.999924
[Rope3_Seg06]
28 139.999893 -0.000119 -0.000060 27.807161 -22.297279 2.971725 139.999893
29 139.999893 -0.000119 -0.000060 35.576855 -24.792545 0.653072 139.999893
[Rope3_Seg07]
28 139.999771 0.000060 -0.000119 14.906793 -8.886539 8.508348 139.999771
29 139.999771 0.000060 -0.000119 20.032579 -10.616302 10.394821 139.999771
[Rope3_Seg08]
28 139.999985 -0.000060 0.000000 6.943184 -3.342371 5.720007 139.999985
29 139.999985 -0.000060 0.000000 8.104955 -3.166862 7.128013 139.999985
[Rope3_Seg09]
28 90.185997 -0.000179 -0.000060 89.793228 -1.359877 -0.847183 90.185997
29 90.185997 -0.000179 -0.000060 89.793228 -1.359877 -0.847183 90.185997
[R_rear_hand01]
28 103.366196 -6.073594 -10.757982 -177.714203 24.565960 -73.910950 104.101845
29 103.366196 -6.073594 -10.757982 -177.714203 24.565960 -73.910950 104.101845
[R_rear_hand02]
28 100.509819 12.039542 -7.992327 -12.874829 36.868488 72.167213 101.543350
29 100.509819 12.039542 -7.992327 -12.874829 36.868488 72.167213 101.543350
[R_rear_hand03]
28 101.539970 5.215704 5.435467 71.484581 -71.816628 21.513813 101.819031
29 101.539970 5.215704 5.435467 71.484581 -71.816628 21.513813 101.819031
[Rope4_Seg01]
28 -0.000015 0.000008 -0.000221 78.586853 -47.229939 -135.082840 0.000222
29 -0.000017 0.000005 -0.000224 73.495071 -44.753792 -130.682678 0.000224
[Rope4_Seg02]
28 139.999985 0.000060 0.000119 -11.615497 -2.767817 -17.118147 139.999985
29 139.999985 0.000060 0.000119 -9.001006 -6.319660 -16.203909 139.999985
[Rope4_Seg03]
28 139.999924 0.000000 -0.000238 -32.502502 2.795803 -32.338287 139.999924
29 139.999924 0.000000 -0.000238 -30.878819 -4.548270 -29.224239 139.999924
[Rope4_Seg04]
28 139.999985 0.000000 0.000119 -22.644621 16.126511 -20.916271 139.999985
29 139.999985 0.000000 0.000119 -30.192421 9.927039 -22.274916 139.999985
[Rope4_Seg05]
28 139.999802 -0.000060 -0.000119 -17.867500 17.708416 -22.801613 139.999802
29 139.999802 -0.000060 -0.000119 -25.874622 14.918585 -23.003014 139.999802
[Rope4_Seg06]
28 139.999924 0.000000 0.000060 -13.355762 26.181026 -24.500465 139.999924
29 139.999924 0.000000 0.000060 -17.428623 24.265020 -19.685358 139.999924
[Rope4_Seg07]
28 139.999802 0.000000 0.000000 -0.775195 12.789962 -7.366110 139.999802
29 139.999802 0.000000 0.000000 -2.654618 13.002827 -4.942586 139.999802
[Rope4_Seg08]
28 139.999924 0.000000 0.000119 -1.065854 5.693683 -3.235879 139.999924
29 139.999924 0.000000 0.000119 -1.992439 6.192478 -2.062899 139.999924
[Rope4_Seg09]
28 90.185791 0.000060 0.000060 -135.617828 2.228885 0.850567 90.185791
29 90.185791 0.000060 0.000060 -135.617828 2.228885 0.850567 90.185791
[L_rear_hand01]
28 101.696655 -8.392275 -7.654577 -12.874829 -36.868488 107.832764 102.329041
29 101.696655 -8.392275 -7.654577 -12.874829 -36.868488 107.832764 102.329041
[L_rear_hand02]
28 102.726799 -1.568258 5.773216 71.484581 71.816628 158.486160 102.900848
29 102.726799 -1.568258 5.773216 71.484581 71.816628 158.486160 102.900848
[L_rear_hand03]
28 104.552910 9.721220 -10.420293 -177.714203 -24.565960 -106.089035 105.519653
29 104.552910 9.721220 -10.420293 -177.714203 -24.565960 -106.089035 105.519653
